<?xml version="1.0" encoding="UTF-8"?>
<svg id="Layer_1" xmlns="http://www.w3.org/2000/svg" viewBox="0 0 58.37 50.88">
  <defs>
    <style>
      .cls-1 {
        fill: #fff;
      }

      .cls-2 {
        opacity: 0;
      }
    </style>
  </defs>
  <g class="cls-2">
    <path class="cls-1" d="M29.27,8.8H12.95c-1.38,0-2.5,1.12-2.5,2.5s1.12,2.5,2.5,2.5h16.32c1.38,0,2.5-1.12,2.5-2.5s-1.12-2.5-2.5-2.5Z"/>
    <path class="cls-1" d="M57.7,17.89c-.47-.51-1.13-.79-1.83-.79h-6.29l4.42-6.7c.76-1.15.44-2.7-.71-3.46-1.15-.76-2.7-.44-3.46.71l-6.23,9.45h-1.38v-4.37c0-2.22-1.65-4.06-3.79-4.35v-3.98c0-2.42-1.97-4.4-4.4-4.4H8.19C5.76,0,3.79,1.97,3.79,4.4v3.98c-2.14.3-3.79,2.14-3.79,4.35v28.1c0,2.42,1.97,4.4,4.4,4.4h30.83l.23,3.33c.09,1.31,1.18,2.33,2.49,2.33h15.92c1.31,0,2.4-1.02,2.49-2.33l2-28.79c.05-.69-.19-1.37-.67-1.88ZM5,40.23V13.29c2.14-.3,3.79-2.14,3.79-4.35v-3.94h24.63v3.94c0,2.22,1.65,4.06,3.79,4.35v3.81h-1.26c-.69,0-1.35.29-1.83.79-.47.51-.71,1.19-.67,1.88l1.42,20.45H5ZM51.54,45.88h-11.25l-1.65-23.79h14.56l-1.65,23.79Z"/>
  </g>
</svg>